<svg width="960" height="720" xmlns="http://www.w3.org/2000/svg" xmlns:xlink="http://www.w3.org/1999/xlink" overflow="hidden"><defs><clipPath id="clip0"><rect x="400" y="381" width="100" height="100"/></clipPath><clipPath id="clip1"><rect x="400" y="381" width="100" height="100"/></clipPath><clipPath id="clip2"><path d="M232.75 386.339 293.23 408.003 257.746 507.069 197.266 485.405Z" fill-rule="evenodd" clip-rule="evenodd"/></clipPath><clipPath id="clip3"><path d="M232.75 386.339 293.23 408.003 257.746 507.069 197.266 485.405Z" fill-rule="evenodd" clip-rule="evenodd"/></clipPath><clipPath id="clip4"><rect x="696" y="413" width="85" height="85"/></clipPath><clipPath id="clip5"><rect x="696" y="413" width="85" height="85"/></clipPath><clipPath id="clip6"><rect x="736" y="438" width="25" height="25"/></clipPath><clipPath id="clip7"><rect x="736" y="438" width="25" height="25"/></clipPath><clipPath id="clip8"><rect x="716" y="438" width="25" height="25"/></clipPath><clipPath id="clip9"><rect x="716" y="438" width="25" height="25"/></clipPath></defs><g><rect x="0" y="0" width="960" height="720" fill="#FFFFFF"/><text fill="#FFFFFF" font-family="Segoe UI,Segoe UI_MSFontService,sans-serif" font-weight="700" font-size="80" transform="translate(251.19 479)">ACEs</text><text fill="#FFFFFF" font-family="Segoe UI,Segoe UI_MSFontService,sans-serif" font-weight="700" font-size="80" transform="translate(455.977 479)">nEHRs</text><rect x="583" y="584" width="23" height="30" fill="#FFFFFF"/><g clip-path="url(#clip0)"><g clip-path="url(#clip1)"></g></g><g clip-path="url(#clip2)"><g clip-path="url(#clip3)"></g></g><g clip-path="url(#clip4)"><g clip-path="url(#clip5)"></g></g><g clip-path="url(#clip6)"><g clip-path="url(#clip7)"></g></g><g clip-path="url(#clip8)"><g clip-path="url(#clip9)"></g></g></g></svg>