<svg width="960" height="720" xmlns="http://www.w3.org/2000/svg" xmlns:xlink="http://www.w3.org/1999/xlink" overflow="hidden"><defs><clipPath id="clip0"><path d="M239.417 253.006 299.897 274.669 264.412 373.735 203.932 352.072Z" fill-rule="evenodd" clip-rule="evenodd"/></clipPath><clipPath id="clip1"><path d="M239.417 253.006 299.897 274.669 264.412 373.735 203.932 352.072Z" fill-rule="evenodd" clip-rule="evenodd"/></clipPath><clipPath id="clip2"><path d="M239.417 253.006 299.897 274.669 264.412 373.735 203.932 352.072Z" fill-rule="evenodd" clip-rule="evenodd"/></clipPath></defs><g><rect x="0" y="0" width="960" height="720" fill="#FFFFFF"/><text fill="#6F777D" font-family="Segoe UI,Segoe UI_MSFontService,sans-serif" font-weight="700" font-size="80" transform="translate(257.857 345)">ACEs</text><text fill="#6F777D" font-family="Segoe UI,Segoe UI_MSFontService,sans-serif" font-weight="700" font-size="80" transform="translate(462.643 345)">nEHRs</text><rect x="589" y="447" width="24" height="30" fill="#FFFFFF"/><g><g><g><path d="M478.672 258.312C478.672 253.754 475.444 250.062 471.453 250.062 467.462 250.062 464.234 253.754 464.234 258.312 464.234 262.438 467.545 267.429 470.422 268.429 470.417 268.494 470.417 268.56 470.422 268.625 470.358 271.163 470.707 273.695 471.453 276.122 472.17 278.365 472.518 280.708 472.484 283.062 472.518 285.417 472.17 287.76 471.453 290.003 471.237 290.745 471.02 291.508 470.845 292.406 470.211 292.517 469.629 292.828 469.184 293.293L458.202 304.719 451.117 304.719C446.28 305.08 442.197 308.916 441.217 311.422 440.969 312.072 437.999 319.074 436.061 323.622 435.396 325.193 436.129 327.007 437.7 327.674 438.081 327.841 438.492 327.925 438.907 327.922 440.146 327.923 441.266 327.184 441.753 326.045L445.156 318.053 445.156 344.938 451.344 344.938 451.344 326.375 454.438 326.375 454.438 344.938 460.625 344.938 460.625 311.123 473.681 297.582C474.865 296.352 474.828 294.395 473.598 293.21 473.394 293.018 473.165 292.855 472.917 292.725 473.083 291.952 473.278 291.261 473.474 290.56 474.221 288.133 474.569 285.601 474.506 283.062 474.569 280.524 474.221 277.992 473.474 275.565 472.757 273.323 472.409 270.979 472.443 268.625 472.448 268.56 472.448 268.494 472.443 268.429 475.362 267.429 478.672 262.438 478.672 258.312Z" fill="#6F777D"/><path d="M460.625 294.922C460.625 299.193 457.162 302.656 452.891 302.656 448.619 302.656 445.156 299.193 445.156 294.922 445.156 290.65 448.619 287.188 452.891 287.188 457.162 287.188 460.625 290.65 460.625 294.922Z" fill="#6F777D"/></g></g></g><g clip-path="url(#clip0)"><g clip-path="url(#clip1)"><g clip-path="url(#clip2)"><path d="M22.7527 59.5586 30.1139 34.7983 18.7375 34.7983 24.3722 4.84499 41.2092 4.84499 34.1291 26.7679 45.5054 26.7679 22.7527 59.5586Z" fill="#6F777D" transform="matrix(0.941429 0.337211 -0.552349 1.54205 239.417 253.006)"/></g></g></g><g><g><g><path d="M770.083 332.75 719.917 332.75 719.917 302.292 770.083 302.292 770.083 332.75ZM775.458 300.5C775.458 298.529 773.846 296.917 771.875 296.917L718.125 296.917C716.154 296.917 714.542 298.529 714.542 300.5L714.542 338.125 775.458 338.125 775.458 300.5Z" fill="#6F777D"/><path d="M750.375 341.708 750.375 342.604C750.375 343.142 750.017 343.5 749.479 343.5L740.521 343.5C739.983 343.5 739.625 343.142 739.625 342.604L739.625 341.708 703.792 341.708 703.792 343.5C703.792 345.471 705.404 347.083 707.375 347.083L782.625 347.083C784.596 347.083 786.208 345.471 786.208 343.5L786.208 341.708 750.375 341.708Z" fill="#6F777D"/></g></g></g><g><g><g><path d="M755.573 324.833C756.715 323.932 757.804 322.966 758.836 321.94 760.331 320.515 761.654 318.919 762.776 317.185 763.818 315.508 764.812 313.331 764.128 311.341 763.573 309.695 762.034 308.297 760.266 308.128 758.031 307.906 756.414 309.797 755.5 311.607 754.664 309.951 753.281 308.242 751.284 308.117 749.51 308.008 747.859 309.255 747.096 310.805 746.141 312.75 746.919 314.938 747.924 316.685 748.966 318.508 750.352 320.109 751.815 321.591 752.969 322.772 754.2 323.874 755.5 324.891ZM751.333 315.979 752.115 313.635 752.578 312.242C752.698 311.88 752.883 311.396 753.383 311.604 753.685 311.732 753.703 312.044 753.755 312.318L753.971 313.471 754.596 316.805 755.01 319.018 756.521 315.023 756.854 314.143C756.951 313.883 757.049 313.622 757.375 313.594 757.789 313.552 757.911 313.906 758.003 314.219L758.323 315.318 758.958 317.503 759.586 316.812C759.787 316.55 760.013 316.307 760.26 316.089 760.521 315.906 761.003 315.99 761.302 315.99L762.271 315.99C762.078 316.336 761.865 316.685 761.633 317.031L760.786 317.031C760.232 317.643 759.701 318.294 759.112 318.875 758.927 319.096 758.599 319.125 758.378 318.94 758.335 318.904 758.298 318.861 758.268 318.812 758.212 318.701 758.17 318.581 758.146 318.458L757.711 316.971 757.357 315.753C756.693 317.505 756.055 319.26 755.37 321.005 755.331 321.147 755.248 321.273 755.133 321.365 754.896 321.527 754.571 321.467 754.409 321.23 754.367 321.17 754.339 321.101 754.326 321.029 754.266 320.789 754.234 320.539 754.188 320.299L753.529 316.784 753.036 314.156 752.302 316.362C752.19 316.69 752.102 317.01 751.68 317.031 751.297 317.049 750.911 317.031 750.531 317.031L749.359 317.031C749.13 316.685 748.914 316.336 748.721 315.99Z" fill="#6F777D"/></g></g></g><g><g><g><path d="M728.99 325.354 728.99 307.646 735.5 307.646 735.5 313.115 742.01 313.115 742.01 325.354 728.99 325.354ZM737.062 308.297 740.318 311.552 737.062 311.552 737.062 308.297ZM737.062 306.083 727.427 306.083 727.427 326.917 743.573 326.917 743.573 311.812 737.062 306.083Z" fill="#6F777D"/><path d="M730.552 315.719 740.448 315.719 740.448 316.76 730.552 316.76Z" fill="#6F777D"/><path d="M730.552 313.635 733.938 313.635 733.938 314.677 730.552 314.677Z" fill="#6F777D"/><path d="M730.552 317.802 740.448 317.802 740.448 318.844 730.552 318.844Z" fill="#6F777D"/><path d="M730.552 319.885 740.448 319.885 740.448 320.927 730.552 320.927Z" fill="#6F777D"/><path d="M730.552 321.969 740.448 321.969 740.448 323.01 730.552 323.01Z" fill="#6F777D"/></g></g></g></g></svg>